<?xml version="1.0" standalone="no"?>
<!DOCTYPE svg PUBLIC "-//W3C//DTD SVG 1.1//EN" "http://www.w3.org/Graphics/SVG/1.1/DTD/svg11.dtd">
<!--Generator: Xara Designer (www.xara.com), SVG filter version: 6.0.0.4-->
<svg stroke-width="0.501" stroke-linejoin="bevel" fill-rule="evenodd" xmlns:xlink="http://www.w3.org/1999/xlink" xmlns="http://www.w3.org/2000/svg" version="1.1" overflow="visible" width="15pt" height="15pt" viewBox="0 0 15 15">
 <defs>
	</defs>
 <g id="Document" fill="none" stroke="black" font-family="Times New Roman" font-size="16" transform="scale(1 -1)">
  <g id="Spread" transform="translate(0 -15)">
   <g id="Layer 1">
    <path d="M 0.004,3.306 L 0.004,3.481 C 0.004,3.639 0.133,3.768 0.291,3.768 L 14.716,3.768 C 14.874,3.768 15.003,3.639 15.003,3.481 L 15.003,3.306 C 15.003,3.148 14.874,3.019 14.716,3.019 L 0.291,3.019 C 0.133,3.019 0.004,3.148 0.004,3.306 Z M 0.004,5.477 L 0.004,11.058 C 0.004,11.587 0.434,12.017 0.963,12.017 L 14.044,12.017 C 14.573,12.017 15.003,11.587 15.003,11.058 L 15.003,5.477 C 15.003,4.948 14.573,4.518 14.044,4.518 L 0.963,4.518 C 0.434,4.518 0.004,4.948 0.004,5.477 Z M 6.006,7.519 C 6.006,7.934 5.669,8.27 5.255,8.27 C 4.84,8.27 4.504,7.934 4.504,7.519 C 4.504,7.104 4.84,6.768 5.255,6.768 C 5.669,6.768 6.006,7.104 6.006,7.519 Z M 8.256,7.519 C 8.256,7.934 7.919,8.27 7.505,8.27 C 7.09,8.27 6.754,7.934 6.754,7.519 C 6.754,7.104 7.09,6.768 7.505,6.768 C 7.919,6.768 8.256,7.104 8.256,7.519 Z M 10.506,7.519 C 10.506,7.934 10.169,8.27 9.755,8.27 C 9.34,8.27 9.004,7.934 9.004,7.519 C 9.004,7.104 9.34,6.768 9.755,6.768 C 10.169,6.768 10.506,7.104 10.506,7.519 Z M 12.756,7.519 C 12.756,7.934 12.419,8.27 12.005,8.27 C 11.59,8.27 11.254,7.934 11.254,7.519 C 11.254,7.104 11.59,6.768 12.005,6.768 C 12.419,6.768 12.756,7.104 12.756,7.519 Z" stroke-linejoin="miter" stroke="none" fill="#2ab4c0" stroke-width="0.441" marker-start="none" marker-end="none"/>
   </g>
  </g>
 </g>
</svg>
